{
    "asset" : {
        "generator" : "Khronos glTF Blender I/O v1.5.17",
        "version" : "2.0"
    },
    "scene" : 0,
    "scenes" : [
        {
            "name" : "Scene",
            "nodes" : [
                0,
                1,
                2,
                3,
                4,
                5
            ]
        }
    ],
    "nodes" : [
        {
            "name" : "Camera",
            "rotation" : [
                0.483536034822464,
                0.33687159419059753,
                -0.20870360732078552,
                0.7804827094078064
            ],
            "translation" : [
                7.358891487121582,
                4.958309173583984,
                6.925790786743164
            ]
        },
        {
            "mesh" : 0,
            "name" : "Wall Right",
            "scale" : [
                1,
                2,
                1
            ],
            "translation" : [
                -14,
                2,
                0
            ]
        },
        {
            "mesh" : 1,
            "name" : "Wall Left",
            "rotation" : [
                0,
                0,
                -1,
                -1.6292068494294654e-07
            ],
            "scale" : [
                1,
                2,
                1
            ],
            "translation" : [
                -11,
                2,
                0
            ]
        },
        {
            "mesh" : 2,
            "name" : "Ground",
            "scale" : [
                10,
                0.5,
                1
            ],
            "translation" : [
                8,
                0.5,
                0
            ]
        },
        {
            "mesh" : 3,
            "name" : "Platform 4x1",
            "rotation" : [
                0,
                0,
                -1,
                -1.6292068494294654e-07
            ],
            "scale" : [
                0.19999998807907104,
                0.19999998807907104,
                0.19999998807907104
            ],
            "translation" : [
                -5,
                0.08841487765312195,
                0.24102665483951569
            ]
        },
        {
            "mesh" : 4,
            "name" : "Platform 1x0.5",
            "rotation" : [
                0,
                0,
                -1,
                -1.6292068494294654e-07
            ],
            "scale" : [
                0.06666667014360428,
                0.06666667014360428,
                0.06666667014360428
            ],
            "translation" : [
                -8.5,
                0.07388654351234436,
                0.32006773352622986
            ]
        }
    ],
    "materials" : [
        {
            "doubleSided" : true,
            "name" : "Wall Material",
            "pbrMetallicRoughness" : {
                "baseColorFactor" : [
                    0.3407784402370453,
                    0.22982966899871826,
                    0.16660669445991516,
                    1
                ],
                "metallicFactor" : 0.863636314868927,
                "roughnessFactor" : 0.459090918302536
            }
        },
        {
            "doubleSided" : true,
            "name" : "Ground",
            "pbrMetallicRoughness" : {
                "baseColorFactor" : [
                    0.22539250552654266,
                    0.08732256293296814,
                    0.041282378137111664,
                    1
                ],
                "metallicFactor" : 0
            }
        },
        {
            "doubleSided" : true,
            "name" : "Platform Material",
            "pbrMetallicRoughness" : {
                "baseColorFactor" : [
                    0.298556387424469,
                    0.298556387424469,
                    0.298556387424469,
                    1
                ],
                "metallicFactor" : 0.550000011920929,
                "roughnessFactor" : 0.6181818246841431
            }
        },
        {
            "doubleSided" : true,
            "emissiveFactor" : [
                1,
                0.142559215426445,
                0.03130599483847618
            ],
            "name" : "Flame",
            "pbrMetallicRoughness" : {}
        }
    ],
    "meshes" : [
        {
            "name" : "Cube.001",
            "primitives" : [
                {
                    "attributes" : {
                        "POSITION" : 0,
                        "NORMAL" : 1,
                        "TEXCOORD_0" : 2
                    },
                    "indices" : 3,
                    "material" : 0
                }
            ]
        },
        {
            "name" : "Cube.003",
            "primitives" : [
                {
                    "attributes" : {
                        "POSITION" : 4,
                        "NORMAL" : 5,
                        "TEXCOORD_0" : 6
                    },
                    "indices" : 3,
                    "material" : 0
                }
            ]
        },
        {
            "name" : "Cube.004",
            "primitives" : [
                {
                    "attributes" : {
                        "POSITION" : 7,
                        "NORMAL" : 8,
                        "TEXCOORD_0" : 9
                    },
                    "indices" : 10,
                    "material" : 1
                }
            ]
        },
        {
            "name" : "Cone.001",
            "primitives" : [
                {
                    "attributes" : {
                        "POSITION" : 11,
                        "NORMAL" : 12,
                        "TEXCOORD_0" : 13
                    },
                    "indices" : 14,
                    "material" : 2
                },
                {
                    "attributes" : {
                        "POSITION" : 15,
                        "NORMAL" : 16,
                        "TEXCOORD_0" : 17
                    },
                    "indices" : 18,
                    "material" : 3
                }
            ]
        },
        {
            "name" : "Cone.003",
            "primitives" : [
                {
                    "attributes" : {
                        "POSITION" : 19,
                        "NORMAL" : 20,
                        "TEXCOORD_0" : 21
                    },
                    "indices" : 22,
                    "material" : 2
                },
                {
                    "attributes" : {
                        "POSITION" : 23,
                        "NORMAL" : 24,
                        "TEXCOORD_0" : 25
                    },
                    "indices" : 26,
                    "material" : 3
                }
            ]
        }
    ],
    "accessors" : [
        {
            "bufferView" : 0,
            "componentType" : 5126,
            "count" : 493,
            "max" : [
                1,
                1,
                1.071903944015503
            ],
            "min" : [
                -1.1206670999526978,
                -1,
                -1
            ],
            "type" : "VEC3"
        },
        {
            "bufferView" : 1,
            "componentType" : 5126,
            "count" : 493,
            "type" : "VEC3"
        },
        {
            "bufferView" : 2,
            "componentType" : 5126,
            "count" : 493,
            "type" : "VEC2"
        },
        {
            "bufferView" : 3,
            "componentType" : 5123,
            "count" : 990,
            "type" : "SCALAR"
        },
        {
            "bufferView" : 4,
            "componentType" : 5126,
            "count" : 493,
            "max" : [
                1,
                1,
                1.071903944015503
            ],
            "min" : [
                -1.1206670999526978,
                -1,
                -1
            ],
            "type" : "VEC3"
        },
        {
            "bufferView" : 5,
            "componentType" : 5126,
            "count" : 493,
            "type" : "VEC3"
        },
        {
            "bufferView" : 6,
            "componentType" : 5126,
            "count" : 493,
            "type" : "VEC2"
        },
        {
            "bufferView" : 7,
            "componentType" : 5126,
            "count" : 788,
            "max" : [
                1,
                1.1776220798492432,
                1.0662667751312256
            ],
            "min" : [
                -1,
                -1,
                -1
            ],
            "type" : "VEC3"
        },
        {
            "bufferView" : 8,
            "componentType" : 5126,
            "count" : 788,
            "type" : "VEC3"
        },
        {
            "bufferView" : 9,
            "componentType" : 5126,
            "count" : 788,
            "type" : "VEC2"
        },
        {
            "bufferView" : 10,
            "componentType" : 5123,
            "count" : 1806,
            "type" : "SCALAR"
        },
        {
            "bufferView" : 11,
            "componentType" : 5126,
            "count" : 1084,
            "max" : [
                10.000001907348633,
                0.9420766234397888,
                4.675495147705078
            ],
            "min" : [
                -10.000001907348633,
                -4.557925224304199,
                -6.205135345458984
            ],
            "type" : "VEC3"
        },
        {
            "bufferView" : 12,
            "componentType" : 5126,
            "count" : 1084,
            "type" : "VEC3"
        },
        {
            "bufferView" : 13,
            "componentType" : 5126,
            "count" : 1084,
            "type" : "VEC2"
        },
        {
            "bufferView" : 14,
            "componentType" : 5123,
            "count" : 1740,
            "type" : "SCALAR"
        },
        {
            "bufferView" : 15,
            "componentType" : 5126,
            "count" : 180,
            "max" : [
                6.500002384185791,
                2.9420762062072754,
                -0.2051328420639038
            ],
            "min" : [
                -6.500001430511475,
                0.942072868347168,
                -2.2051329612731934
            ],
            "type" : "VEC3"
        },
        {
            "bufferView" : 16,
            "componentType" : 5126,
            "count" : 180,
            "type" : "VEC3"
        },
        {
            "bufferView" : 17,
            "componentType" : 5126,
            "count" : 180,
            "type" : "VEC2"
        },
        {
            "bufferView" : 18,
            "componentType" : 5123,
            "count" : 180,
            "type" : "SCALAR"
        },
        {
            "bufferView" : 19,
            "componentType" : 5126,
            "count" : 824,
            "max" : [
                7.500000953674316,
                1.6083002090454102,
                12.840868949890137
            ],
            "min" : [
                -7.500001907348633,
                -6.391698837280273,
                -19.80101776123047
            ],
            "type" : "VEC3"
        },
        {
            "bufferView" : 20,
            "componentType" : 5126,
            "count" : 824,
            "type" : "VEC3"
        },
        {
            "bufferView" : 21,
            "componentType" : 5126,
            "count" : 824,
            "type" : "VEC2"
        },
        {
            "bufferView" : 22,
            "componentType" : 5123,
            "count" : 1326,
            "type" : "SCALAR"
        },
        {
            "bufferView" : 23,
            "componentType" : 5126,
            "count" : 120,
            "max" : [
                4,
                3.608299970626831,
                -3.8010149002075195
            ],
            "min" : [
                -3.999999761581421,
                1.6082979440689087,
                -5.8010149002075195
            ],
            "type" : "VEC3"
        },
        {
            "bufferView" : 24,
            "componentType" : 5126,
            "count" : 120,
            "type" : "VEC3"
        },
        {
            "bufferView" : 25,
            "componentType" : 5126,
            "count" : 120,
            "type" : "VEC2"
        },
        {
            "bufferView" : 26,
            "componentType" : 5123,
            "count" : 120,
            "type" : "SCALAR"
        }
    ],
    "bufferViews" : [
        {
            "buffer" : 0,
            "byteLength" : 5916,
            "byteOffset" : 0
        },
        {
            "buffer" : 0,
            "byteLength" : 5916,
            "byteOffset" : 5916
        },
        {
            "buffer" : 0,
            "byteLength" : 3944,
            "byteOffset" : 11832
        },
        {
            "buffer" : 0,
            "byteLength" : 1980,
            "byteOffset" : 15776
        },
        {
            "buffer" : 0,
            "byteLength" : 5916,
            "byteOffset" : 17756
        },
        {
            "buffer" : 0,
            "byteLength" : 5916,
            "byteOffset" : 23672
        },
        {
            "buffer" : 0,
            "byteLength" : 3944,
            "byteOffset" : 29588
        },
        {
            "buffer" : 0,
            "byteLength" : 9456,
            "byteOffset" : 33532
        },
        {
            "buffer" : 0,
            "byteLength" : 9456,
            "byteOffset" : 42988
        },
        {
            "buffer" : 0,
            "byteLength" : 6304,
            "byteOffset" : 52444
        },
        {
            "buffer" : 0,
            "byteLength" : 3612,
            "byteOffset" : 58748
        },
        {
            "buffer" : 0,
            "byteLength" : 13008,
            "byteOffset" : 62360
        },
        {
            "buffer" : 0,
            "byteLength" : 13008,
            "byteOffset" : 75368
        },
        {
            "buffer" : 0,
            "byteLength" : 8672,
            "byteOffset" : 88376
        },
        {
            "buffer" : 0,
            "byteLength" : 3480,
            "byteOffset" : 97048
        },
        {
            "buffer" : 0,
            "byteLength" : 2160,
            "byteOffset" : 100528
        },
        {
            "buffer" : 0,
            "byteLength" : 2160,
            "byteOffset" : 102688
        },
        {
            "buffer" : 0,
            "byteLength" : 1440,
            "byteOffset" : 104848
        },
        {
            "buffer" : 0,
            "byteLength" : 360,
            "byteOffset" : 106288
        },
        {
            "buffer" : 0,
            "byteLength" : 9888,
            "byteOffset" : 106648
        },
        {
            "buffer" : 0,
            "byteLength" : 9888,
            "byteOffset" : 116536
        },
        {
            "buffer" : 0,
            "byteLength" : 6592,
            "byteOffset" : 126424
        },
        {
            "buffer" : 0,
            "byteLength" : 2652,
            "byteOffset" : 133016
        },
        {
            "buffer" : 0,
            "byteLength" : 1440,
            "byteOffset" : 135668
        },
        {
            "buffer" : 0,
            "byteLength" : 1440,
            "byteOffset" : 137108
        },
        {
            "buffer" : 0,
            "byteLength" : 960,
            "byteOffset" : 138548
        },
        {
            "buffer" : 0,
            "byteLength" : 240,
            "byteOffset" : 139508
        }
    ],
    "buffers" : [
        {
            "byteLength" : 139748,
            "uri" : "data:application/octet-stream;base64,"
        }
    ]
}
